STARTFONT 2.1
FONT -FontForge-Bitstream Vera Sans Mono-Book-R-Normal-SansMono--28-200-100-100-P-169-ISO8859-1
SIZE 20 100 100
FONTBOUNDINGBOX 18 34 0 -7
COMMENT "Generated by fontforge, http://fontforge.sourceforge.net"
COMMENT "Copyright (c) 2003 by Bitstream, Inc. All Rights Reserved."
STARTPROPERTIES 40
FOUNDRY "FontForge"
FAMILY_NAME "Bitstream Vera Sans Mono"
WEIGHT_NAME "Book"
SLANT "R"
SETWIDTH_NAME "Normal"
ADD_STYLE_NAME "SansMono"
PIXEL_SIZE 28
POINT_SIZE 200
RESOLUTION_X 100
RESOLUTION_Y 100
SPACING "P"
AVERAGE_WIDTH 169
CHARSET_REGISTRY "ISO8859"
CHARSET_ENCODING "1"
FONTNAME_REGISTRY ""
CHARSET_COLLECTIONS "ISO8859-9 ISOLatin1Encoding"
FONT_NAME "BitstreamVeraSansMono-Roman"
FACE_NAME "Bitstream Vera Sans Mono"
COPYRIGHT "Copyright (c) 2003 by Bitstream, Inc. All Rights Reserved."
FONT_VERSION "Release 1.10"
FONT_ASCENT 21
FONT_DESCENT 7
UNDERLINE_POSITION -4
UNDERLINE_THICKNESS 2
X_HEIGHT 14
CAP_HEIGHT 19
RAW_ASCENT 759
RAW_DESCENT 240
NORM_SPACE 17
RELATIVE_WEIGHT 40
RELATIVE_SETWIDTH 50
SUPERSCRIPT_X 0
SUPERSCRIPT_Y 8
SUPERSCRIPT_SIZE 16
SUBSCRIPT_X 0
SUBSCRIPT_Y -6
SUBSCRIPT_SIZE 16
FIGURE_WIDTH 17
AVG_LOWERCASE_WIDTH 170
AVG_UPPERCASE_WIDTH 170
ENDPROPERTIES
CHARS 269
STARTCHAR space
ENCODING 32
SWIDTH 602 0
DWIDTH 17 0
BBX 1 1 0 0
BITMAP
00
ENDCHAR
STARTCHAR exclam
ENCODING 33
SWIDTH 602 0
DWIDTH 17 0
BBX 3 20 7 0
BITMAP
E0
E0
E0
E0
E0
E0
E0
E0
E0
E0
E0
E0
E0
E0
00
00
00
E0
E0
E0
ENDCHAR
STARTCHAR quotedbl
ENCODING 34
SWIDTH 602 0
DWIDTH 17 0
BBX 7 8 5 12
BITMAP
C6
C6
C6
C6
C6
C6
C6
C6
ENDCHAR
STARTCHAR numbersign
ENCODING 35
SWIDTH 602 0
DWIDTH 17 0
BBX 17 21 0 0
BITMAP
018600
018E00
018C00
038C00
030C00
030C00
3FFF80
3FFF80
061800
061800
063800
0E3000
0C3000
FFFE00
FFFE00
1C6000
186000
186000
18E000
38C000
30C000
ENDCHAR
STARTCHAR dollar
ENCODING 36
SWIDTH 602 0
DWIDTH 17 0
BBX 13 25 2 -4
BITMAP
0200
0200
0200
1FC0
3FF0
7230
E200
E200
E200
F200
7A00
3F80
1FE0
03F0
0278
0238
0238
0238
C270
FFE0
3FC0
0200
0200
0200
0200
ENDCHAR
STARTCHAR percent
ENCODING 37
SWIDTH 602 0
DWIDTH 17 0
BBX 17 20 0 0
BITMAP
3E0000
7F0000
E38000
C18000
C18000
C18000
E38100
7F0700
3E3C00
00F000
078000
3E3E00
707F00
00E300
00C180
00C180
00C180
00E380
007F00
003E00
ENDCHAR
STARTCHAR ampersand
ENCODING 38
SWIDTH 602 0
DWIDTH 17 0
BBX 16 20 1 0
BITMAP
07C0
1FE0
3C60
3800
3800
3800
3C00
1C00
1E00
3F00
7783
6783
E3C3
E1E3
E0F6
E07E
703C
783E
3FEE
0FCF
ENDCHAR
STARTCHAR quotesingle
ENCODING 39
SWIDTH 602 0
DWIDTH 17 0
BBX 2 8 7 12
BITMAP
C0
C0
C0
C0
C0
C0
C0
C0
ENDCHAR
STARTCHAR parenleft
ENCODING 40
SWIDTH 602 0
DWIDTH 17 0
BBX 6 25 6 -4
BITMAP
0C
18
18
38
30
70
70
60
E0
E0
E0
E0
E0
E0
E0
E0
E0
60
70
70
30
38
18
18
0C
ENDCHAR
STARTCHAR parenright
ENCODING 41
SWIDTH 602 0
DWIDTH 17 0
BBX 6 25 5 -4
BITMAP
C0
60
60
70
30
38
38
18
1C
1C
1C
1C
1C
1C
1C
1C
1C
38
38
38
30
70
60
60
C0
ENDCHAR
STARTCHAR asterisk
ENCODING 42
SWIDTH 602 0
DWIDTH 17 0
BBX 12 12 3 8
BITMAP
0600
0600
C630
E670
3FC0
0F00
0F00
3FC0
E670
C630
0600
0600
ENDCHAR
STARTCHAR plus
ENCODING 43
SWIDTH 602 0
DWIDTH 17 0
BBX 14 14 1 2
BITMAP
0300
0300
0300
0300
0300
0300
FFFC
FFFC
0300
0300
0300
0300
0300
0300
ENDCHAR
STARTCHAR comma
ENCODING 44
SWIDTH 602 0
DWIDTH 17 0
BBX 4 8 6 -4
BITMAP
70
70
70
70
60
E0
E0
C0
ENDCHAR
STARTCHAR hyphen
ENCODING 45
SWIDTH 602 0
DWIDTH 17 0
BBX 7 2 5 7
BITMAP
FE
FE
ENDCHAR
STARTCHAR period
ENCODING 46
SWIDTH 602 0
DWIDTH 17 0
BBX 3 4 7 0
BITMAP
E0
E0
E0
E0
ENDCHAR
STARTCHAR slash
ENCODING 47
SWIDTH 602 0
DWIDTH 17 0
BBX 14 23 1 -3
BITMAP
001C
0038
0038
0070
0070
00E0
00E0
01C0
01C0
0380
0380
0780
0700
0700
0E00
0E00
1C00
1C00
3800
3800
7000
7000
E000
ENDCHAR
STARTCHAR zero
ENCODING 48
SWIDTH 602 0
DWIDTH 17 0
BBX 13 20 2 0
BITMAP
0F80
3FE0
38E0
7070
7070
E038
E038
E038
E738
E738
E738
E038
E038
E038
E038
7070
7070
38E0
3FE0
0F80
ENDCHAR
STARTCHAR one
ENCODING 49
SWIDTH 602 0
DWIDTH 17 0
BBX 12 20 3 0
BITMAP
3F00
FF00
E700
0700
0700
0700
0700
0700
0700
0700
0700
0700
0700
0700
0700
0700
0700
0700
7FF0
7FF0
ENDCHAR
STARTCHAR two
ENCODING 50
SWIDTH 602 0
DWIDTH 17 0
BBX 13 20 2 0
BITMAP
3F80
FFE0
E0F0
8078
0038
0038
0038
0038
0078
00F0
01E0
03E0
07C0
0780
0F00
1C00
3800
7000
FFF8
FFF8
ENDCHAR
STARTCHAR three
ENCODING 51
SWIDTH 602 0
DWIDTH 17 0
BBX 13 20 2 0
BITMAP
1FC0
7FE0
6070
0038
0038
0038
0038
00F0
0FE0
0FC0
00F0
0070
0038
0038
0038
0038
0078
C0F0
FFE0
3F80
ENDCHAR
STARTCHAR four
ENCODING 52
SWIDTH 602 0
DWIDTH 17 0
BBX 14 20 1 0
BITMAP
00E0
01E0
03E0
03E0
06E0
0EE0
0CE0
18E0
18E0
30E0
70E0
60E0
C0E0
FFFC
FFFC
00E0
00E0
00E0
00E0
00E0
ENDCHAR
STARTCHAR five
ENCODING 53
SWIDTH 602 0
DWIDTH 17 0
BBX 13 20 2 0
BITMAP
7FF0
7FF0
7000
7000
7000
7000
7F80
7FE0
41F0
0070
0078
0038
0038
0038
0038
0038
0070
C0F0
FFE0
7F80
ENDCHAR
STARTCHAR six
ENCODING 54
SWIDTH 602 0
DWIDTH 17 0
BBX 13 20 2 0
BITMAP
0FC0
1FE0
3C20
7000
7000
E000
E000
E7C0
EFE0
F8F0
F078
E038
E038
E038
E038
6038
7078
38F0
3FE0
0FC0
ENDCHAR
STARTCHAR seven
ENCODING 55
SWIDTH 602 0
DWIDTH 17 0
BBX 13 20 2 0
BITMAP
FFF8
FFF8
0078
0070
0070
00E0
00E0
00E0
01C0
01C0
03C0
0380
0380
0780
0700
0700
0E00
0E00
0E00
1C00
ENDCHAR
STARTCHAR eight
ENCODING 56
SWIDTH 602 0
DWIDTH 17 0
BBX 13 20 2 0
BITMAP
1FC0
7FF0
7070
E038
E038
E038
E038
7070
1FC0
3FE0
78F0
7070
E038
E038
E038
E038
F078
78F0
3FE0
1F80
ENDCHAR
STARTCHAR nine
ENCODING 57
SWIDTH 602 0
DWIDTH 17 0
BBX 13 20 2 0
BITMAP
1F80
3FE0
78E0
F070
E030
E038
E038
E038
E038
F078
78F8
3FB8
1F38
0038
0070
0070
0070
21E0
3FC0
1F00
ENDCHAR
STARTCHAR colon
ENCODING 58
SWIDTH 602 0
DWIDTH 17 0
BBX 3 14 7 0
BITMAP
E0
E0
E0
E0
00
00
00
00
00
00
E0
E0
E0
E0
ENDCHAR
STARTCHAR semicolon
ENCODING 59
SWIDTH 602 0
DWIDTH 17 0
BBX 4 18 6 -4
BITMAP
70
70
70
70
00
00
00
00
00
00
70
70
70
70
60
E0
E0
C0
ENDCHAR
STARTCHAR less
ENCODING 60
SWIDTH 602 0
DWIDTH 17 0
BBX 14 14 1 2
BITMAP
0004
003C
00FC
03F0
1F80
7E00
F000
F000
7E00
1F80
03F0
00FC
003C
0004
ENDCHAR
STARTCHAR equal
ENCODING 61
SWIDTH 602 0
DWIDTH 17 0
BBX 14 7 1 5
BITMAP
FFFC
FFFC
0000
0000
0000
FFFC
FFFC
ENDCHAR
STARTCHAR greater
ENCODING 62
SWIDTH 602 0
DWIDTH 17 0
BBX 14 14 1 2
BITMAP
8000
F000
FC00
3F00
07E0
01F8
003C
003C
01F8
07E0
3F00
FC00
F000
8000
ENDCHAR
STARTCHAR question
ENCODING 63
SWIDTH 602 0
DWIDTH 17 0
BBX 11 20 4 0
BITMAP
1F00
7FC0
E1C0
80E0
00E0
01E0
01E0
07C0
0780
0F00
1E00
1C00
1C00
1C00
1C00
0000
0000
1C00
1C00
1C00
ENDCHAR
STARTCHAR at
ENCODING 64
SWIDTH 602 0
DWIDTH 17 0
BBX 16 23 1 -4
BITMAP
03F0
0FFC
1E0E
3806
3007
6003
60FB
E1FF
C38F
C707
C603
C603
C603
C707
C38F
E1FF
60FB
7000
3000
1800
0E04
07FC
01FC
ENDCHAR
STARTCHAR A
ENCODING 65
SWIDTH 602 0
DWIDTH 17 0
BBX 16 20 1 0
BITMAP
03C0
03C0
03C0
07E0
07E0
07E0
0E70
0E70
0E70
1C38
1C38
1C38
3FFC
3FFC
381C
781E
700E
700E
F00F
E007
ENDCHAR
STARTCHAR B
ENCODING 66
SWIDTH 602 0
DWIDTH 17 0
BBX 13 20 2 0
BITMAP
FF80
FFE0
E0E0
E070
E070
E070
E070
E0E0
FFC0
FFC0
E0F0
E070
E038
E038
E038
E038
E078
E0F0
FFE0
FFC0
ENDCHAR
STARTCHAR C
ENCODING 67
SWIDTH 602 0
DWIDTH 17 0
BBX 13 20 2 0
BITMAP
07F0
1FF8
3C18
3808
7000
7000
E000
E000
E000
E000
E000
E000
E000
E000
7000
7000
3808
3C18
1FF8
07F0
ENDCHAR
STARTCHAR D
ENCODING 68
SWIDTH 602 0
DWIDTH 17 0
BBX 13 20 2 0
BITMAP
FF00
FFC0
E1E0
E0F0
E070
E030
E038
E038
E038
E038
E038
E038
E038
E038
E070
E070
E070
E1E0
FFC0
FF00
ENDCHAR
STARTCHAR E
ENCODING 69
SWIDTH 602 0
DWIDTH 17 0
BBX 12 20 3 0
BITMAP
FFF0
FFF0
E000
E000
E000
E000
E000
E000
FFE0
FFE0
E000
E000
E000
E000
E000
E000
E000
E000
FFF0
FFF0
ENDCHAR
STARTCHAR F
ENCODING 70
SWIDTH 602 0
DWIDTH 17 0
BBX 12 20 3 0
BITMAP
FFF0
FFF0
E000
E000
E000
E000
E000
E000
FFE0
FFE0
E000
E000
E000
E000
E000
E000
E000
E000
E000
E000
ENDCHAR
STARTCHAR G
ENCODING 71
SWIDTH 602 0
DWIDTH 17 0
BBX 14 20 2 0
BITMAP
07F0
1FF8
3C18
3808
7000
7000
E000
E000
E000
E0FC
E0FC
E01C
E01C
E01C
701C
701C
381C
3C3C
1FFC
07F0
ENDCHAR
STARTCHAR H
ENCODING 72
SWIDTH 602 0
DWIDTH 17 0
BBX 13 20 2 0
BITMAP
E038
E038
E038
E038
E038
E038
E038
E038
FFF8
FFF8
E038
E038
E038
E038
E038
E038
E038
E038
E038
E038
ENDCHAR
STARTCHAR I
ENCODING 73
SWIDTH 602 0
DWIDTH 17 0
BBX 11 20 3 0
BITMAP
FFE0
FFE0
0E00
0E00
0E00
0E00
0E00
0E00
0E00
0E00
0E00
0E00
0E00
0E00
0E00
0E00
0E00
0E00
FFE0
FFE0
ENDCHAR
STARTCHAR J
ENCODING 74
SWIDTH 602 0
DWIDTH 17 0
BBX 12 20 2 0
BITMAP
0FF0
0FF0
0070
0070
0070
0070
0070
0070
0070
0070
0070
0070
0070
0070
0070
0070
8070
E0E0
FFE0
3F80
ENDCHAR
STARTCHAR K
ENCODING 75
SWIDTH 602 0
DWIDTH 17 0
BBX 15 20 2 0
BITMAP
E01C
E038
E070
E0E0
E1E0
E3C0
E780
EF00
FE00
FF00
FF80
F380
E3C0
E1E0
E0E0
E0F0
E078
E038
E03C
E01E
ENDCHAR
STARTCHAR L
ENCODING 76
SWIDTH 602 0
DWIDTH 17 0
BBX 13 20 3 0
BITMAP
E000
E000
E000
E000
E000
E000
E000
E000
E000
E000
E000
E000
E000
E000
E000
E000
E000
E000
FFF8
FFF8
ENDCHAR
STARTCHAR M
ENCODING 77
SWIDTH 602 0
DWIDTH 17 0
BBX 14 20 1 0
BITMAP
F03C
F03C
F87C
F87C
F87C
ECDC
ECDC
ECDC
E59C
E79C
E79C
E39C
E31C
E01C
E01C
E01C
E01C
E01C
E01C
E01C
ENDCHAR
STARTCHAR N
ENCODING 78
SWIDTH 602 0
DWIDTH 17 0
BBX 13 20 2 0
BITMAP
F038
F038
F838
F838
F838
EC38
EC38
EE38
E638
E638
E338
E338
E3B8
E1B8
E1B8
E0F8
E0F8
E0F8
E078
E078
ENDCHAR
STARTCHAR O
ENCODING 79
SWIDTH 602 0
DWIDTH 17 0
BBX 14 20 2 0
BITMAP
0FC0
1FE0
3870
7038
7038
E01C
E01C
E01C
E01C
E01C
E01C
E01C
E01C
E01C
E01C
7038
7038
3870
1FE0
0FC0
ENDCHAR
STARTCHAR P
ENCODING 80
SWIDTH 602 0
DWIDTH 17 0
BBX 13 20 3 0
BITMAP
FF80
FFE0
E0F0
E078
E038
E038
E038
E038
E078
E0F0
FFE0
FFC0
E000
E000
E000
E000
E000
E000
E000
E000
ENDCHAR
STARTCHAR Q
ENCODING 81
SWIDTH 602 0
DWIDTH 17 0
BBX 14 24 2 -4
BITMAP
0FC0
1FE0
3870
7038
7038
E01C
E01C
E01C
E01C
E01C
E01C
E01C
E01C
E01C
E01C
7038
7038
3870
1FE0
0FC0
00E0
0070
0038
0020
ENDCHAR
STARTCHAR R
ENCODING 82
SWIDTH 602 0
DWIDTH 17 0
BBX 15 20 2 0
BITMAP
FF80
FFE0
E0F0
E078
E038
E038
E038
E038
E078
E0F0
FFE0
FFC0
E1E0
E0F0
E070
E078
E038
E03C
E01C
E01E
ENDCHAR
STARTCHAR S
ENCODING 83
SWIDTH 602 0
DWIDTH 17 0
BBX 13 20 2 0
BITMAP
0FC0
3FF0
7870
F010
E000
E000
E000
F800
7F00
3FE0
0FF0
00F0
0078
0038
0038
0038
8078
E0F0
FFE0
3FC0
ENDCHAR
STARTCHAR T
ENCODING 84
SWIDTH 602 0
DWIDTH 17 0
BBX 15 20 1 0
BITMAP
FFFE
FFFE
0380
0380
0380
0380
0380
0380
0380
0380
0380
0380
0380
0380
0380
0380
0380
0380
0380
0380
ENDCHAR
STARTCHAR U
ENCODING 85
SWIDTH 602 0
DWIDTH 17 0
BBX 13 20 2 0
BITMAP
E038
E038
E038
E038
E038
E038
E038
E038
E038
E038
E038
E038
E038
E038
E038
E038
E038
7070
3FE0
0FC0
ENDCHAR
STARTCHAR V
ENCODING 86
SWIDTH 602 0
DWIDTH 17 0
BBX 15 20 1 0
BITMAP
E00E
F01E
701C
701C
701C
3838
3838
3838
3C78
1C70
1C70
1CF0
0EE0
0EE0
0EE0
07C0
07C0
07C0
07C0
0380
ENDCHAR
STARTCHAR W
ENCODING 87
SWIDTH 602 0
DWIDTH 17 0
BBX 17 20 0 0
BITMAP
E00380
E00380
E00380
700700
700700
700700
71C700
71C700
73E700
7B6F00
3B6E00
3B6E00
3B6E00
3E3E00
3E3E00
3E3E00
1E3C00
1C1C00
1C1C00
1C1C00
ENDCHAR
STARTCHAR X
ENCODING 88
SWIDTH 602 0
DWIDTH 17 0
BBX 16 20 1 0
BITMAP
F00F
781E
381C
3C3C
1E78
0E70
0FF0
07E0
03C0
03C0
03C0
07E0
0FE0
0EF0
1E78
1C38
3C3C
781C
700E
F00F
ENDCHAR
STARTCHAR Y
ENCODING 89
SWIDTH 602 0
DWIDTH 17 0
BBX 17 20 0 0
BITMAP
F00780
780F00
380E00
3C1E00
1C1C00
1E3C00
0F7800
077000
07F000
03E000
01C000
01C000
01C000
01C000
01C000
01C000
01C000
01C000
01C000
01C000
ENDCHAR
STARTCHAR Z
ENCODING 90
SWIDTH 602 0
DWIDTH 17 0
BBX 14 20 2 0
BITMAP
FFFC
FFFC
003C
0078
0070
00F0
01E0
01C0
03C0
0380
0700
0F00
0E00
1E00
3C00
3800
7800
F000
FFFC
FFFC
ENDCHAR
STARTCHAR bracketleft
ENCODING 91
SWIDTH 602 0
DWIDTH 17 0
BBX 6 25 6 -4
BITMAP
FC
FC
E0
E0
E0
E0
E0
E0
E0
E0
E0
E0
E0
E0
E0
E0
E0
E0
E0
E0
E0
E0
E0
FC
FC
ENDCHAR
STARTCHAR backslash
ENCODING 92
SWIDTH 602 0
DWIDTH 17 0
BBX 14 23 1 -3
BITMAP
E000
7000
7000
3800
3800
1C00
1C00
0E00
0E00
0700
0700
0780
0380
0380
01C0
01C0
00E0
00E0
0070
0070
0038
0038
001C
ENDCHAR
STARTCHAR bracketright
ENCODING 93
SWIDTH 602 0
DWIDTH 17 0
BBX 6 25 5 -4
BITMAP
FC
FC
1C
1C
1C
1C
1C
1C
1C
1C
1C
1C
1C
1C
1C
1C
1C
1C
1C
1C
1C
1C
1C
FC
FC
ENDCHAR
STARTCHAR asciicircum
ENCODING 94
SWIDTH 602 0
DWIDTH 17 0
BBX 15 8 1 12
BITMAP
0380
07C0
0EE0
0C60
1C70
3838
701C
E00E
ENDCHAR
STARTCHAR underscore
ENCODING 95
SWIDTH 602 0
DWIDTH 17 0
BBX 14 2 0 -7
BITMAP
FFFC
FFFC
ENDCHAR
STARTCHAR grave
ENCODING 96
SWIDTH 602 0
DWIDTH 17 0
BBX 7 5 4 17
BITMAP
E0
70
38
1C
0E
ENDCHAR
STARTCHAR a
ENCODING 97
SWIDTH 602 0
DWIDTH 17 0
BBX 13 15 2 0
BITMAP
1FC0
7FF0
6070
0038
0038
1FF8
3FF8
7838
E038
E038
E078
E078
F0F8
7FB8
1F38
ENDCHAR
STARTCHAR b
ENCODING 98
SWIDTH 602 0
DWIDTH 17 0
BBX 13 21 3 0
BITMAP
E000
E000
E000
E000
E000
E000
E7C0
FFE0
F8F0
F070
E038
E038
E038
E038
E038
E038
E038
F070
F8F0
FFE0
E7C0
ENDCHAR
STARTCHAR c
ENCODING 99
SWIDTH 602 0
DWIDTH 17 0
BBX 12 15 3 0
BITMAP
0FC0
1FE0
3830
7010
F000
E000
E000
E000
E000
E000
F000
7000
3C30
1FE0
0FC0
ENDCHAR
STARTCHAR d
ENCODING 100
SWIDTH 602 0
DWIDTH 17 0
BBX 13 21 2 0
BITMAP
0038
0038
0038
0038
0038
0038
1F38
3FF8
78F8
7078
E038
E038
E038
E038
E038
E038
E038
7078
78F8
3FF8
1F38
ENDCHAR
STARTCHAR e
ENCODING 101
SWIDTH 602 0
DWIDTH 17 0
BBX 14 15 2 0
BITMAP
0FC0
1FF0
3878
7038
F01C
E01C
E01C
FFFC
FFFC
E000
E000
7008
3838
1FF0
0FC0
ENDCHAR
STARTCHAR f
ENCODING 102
SWIDTH 602 0
DWIDTH 17 0
BBX 12 21 3 0
BITMAP
03F0
07F0
0F00
0E00
0E00
0E00
FFF0
FFF0
0E00
0E00
0E00
0E00
0E00
0E00
0E00
0E00
0E00
0E00
0E00
0E00
0E00
ENDCHAR
STARTCHAR g
ENCODING 103
SWIDTH 602 0
DWIDTH 17 0
BBX 13 21 2 -6
BITMAP
1F38
3FB8
78F8
7078
E038
E038
E038
E038
E038
E038
E038
7078
78F8
3FB8
1F38
0038
0038
0070
20F0
3FE0
1F80
ENDCHAR
STARTCHAR h
ENCODING 104
SWIDTH 602 0
DWIDTH 17 0
BBX 12 21 3 0
BITMAP
E000
E000
E000
E000
E000
E000
E7C0
EFE0
F8E0
F070
E070
E070
E070
E070
E070
E070
E070
E070
E070
E070
E070
ENDCHAR
STARTCHAR i
ENCODING 105
SWIDTH 602 0
DWIDTH 17 0
BBX 13 21 2 0
BITMAP
0700
0700
0700
0000
0000
0000
7F00
7F00
0700
0700
0700
0700
0700
0700
0700
0700
0700
0700
0700
FFF8
FFF8
ENDCHAR
STARTCHAR j
ENCODING 106
SWIDTH 602 0
DWIDTH 17 0
BBX 9 27 2 -6
BITMAP
0380
0380
0380
0000
0000
0000
3F80
3F80
0380
0380
0380
0380
0380
0380
0380
0380
0380
0380
0380
0380
0380
0380
0380
0380
0700
FF00
FE00
ENDCHAR
STARTCHAR k
ENCODING 107
SWIDTH 602 0
DWIDTH 17 0
BBX 13 21 3 0
BITMAP
E000
E000
E000
E000
E000
E000
E078
E0F0
E1E0
E3C0
E780
EF00
FE00
FF00
FF00
F780
E3C0
E1E0
E0E0
E0F0
E078
ENDCHAR
STARTCHAR l
ENCODING 108
SWIDTH 602 0
DWIDTH 17 0
BBX 13 21 1 0
BITMAP
FF00
FF00
0700
0700
0700
0700
0700
0700
0700
0700
0700
0700
0700
0700
0700
0700
0700
0700
0380
03F8
00F8
ENDCHAR
STARTCHAR m
ENCODING 109
SWIDTH 602 0
DWIDTH 17 0
BBX 15 15 1 0
BITMAP
EE38
FF7C
F3DE
E38E
E38E
E38E
E38E
E38E
E38E
E38E
E38E
E38E
E38E
E38E
E38E
ENDCHAR
STARTCHAR n
ENCODING 110
SWIDTH 602 0
DWIDTH 17 0
BBX 12 15 3 0
BITMAP
E7C0
EFE0
F8E0
F070
E070
E070
E070
E070
E070
E070
E070
E070
E070
E070
E070
ENDCHAR
STARTCHAR o
ENCODING 111
SWIDTH 602 0
DWIDTH 17 0
BBX 13 15 2 0
BITMAP
0F80
3FE0
78F0
7070
E038
E038
E038
E038
E038
E038
E038
7070
78F0
3FE0
0F80
ENDCHAR
STARTCHAR p
ENCODING 112
SWIDTH 602 0
DWIDTH 17 0
BBX 13 21 3 -6
BITMAP
E7C0
FFE0
F8F0
F070
E038
E038
E038
E038
E038
E038
E038
F070
F8F0
FFE0
E7C0
E000
E000
E000
E000
E000
E000
ENDCHAR
STARTCHAR q
ENCODING 113
SWIDTH 602 0
DWIDTH 17 0
BBX 13 21 2 -6
BITMAP
1F38
3FF8
78F8
7078
E038
E038
E038
E038
E038
E038
E038
7078
78F8
3FF8
1F38
0038
0038
0038
0038
0038
0038
ENDCHAR
STARTCHAR r
ENCODING 114
SWIDTH 602 0
DWIDTH 17 0
BBX 11 15 5 0
BITMAP
E3C0
EFE0
E860
F000
F000
E000
E000
E000
E000
E000
E000
E000
E000
E000
E000
ENDCHAR
STARTCHAR s
ENCODING 115
SWIDTH 602 0
DWIDTH 17 0
BBX 11 15 3 0
BITMAP
1F80
7FC0
F040
E000
E000
FC00
7F80
3FC0
07E0
01E0
00E0
00E0
C1E0
FFC0
3F00
ENDCHAR
STARTCHAR t
ENCODING 116
SWIDTH 602 0
DWIDTH 17 0
BBX 13 19 2 0
BITMAP
0E00
0E00
0E00
0E00
FFF8
FFF8
0E00
0E00
0E00
0E00
0E00
0E00
0E00
0E00
0E00
0E00
0F00
07F8
03F8
ENDCHAR
STARTCHAR u
ENCODING 117
SWIDTH 602 0
DWIDTH 17 0
BBX 12 15 3 0
BITMAP
E070
E070
E070
E070
E070
E070
E070
E070
E070
E070
E070
E0F0
71F0
7F70
3E70
ENDCHAR
STARTCHAR v
ENCODING 118
SWIDTH 602 0
DWIDTH 17 0
BBX 14 15 1 0
BITMAP
E01C
7038
7038
7038
3870
3870
3CF0
1CE0
1CE0
1FE0
0FC0
0FC0
0FC0
0780
0780
ENDCHAR
STARTCHAR w
ENCODING 119
SWIDTH 602 0
DWIDTH 17 0
BBX 17 15 0 0
BITMAP
E00380
E00380
700700
700700
71C700
71C700
394E00
3B6E00
3B6E00
3B6E00
1E3C00
1E3C00
1E3C00
1C1C00
1C1C00
ENDCHAR
STARTCHAR x
ENCODING 120
SWIDTH 602 0
DWIDTH 17 0
BBX 15 15 1 0
BITMAP
783C
3C78
1EF0
0EE0
0FE0
07C0
0380
0380
07C0
0FE0
0EE0
1EF0
3C78
783C
F01E
ENDCHAR
STARTCHAR y
ENCODING 121
SWIDTH 602 0
DWIDTH 17 0
BBX 14 21 1 -6
BITMAP
E01C
7038
7038
7878
3870
3870
3CF0
1CE0
1CE0
0FC0
0FC0
0FC0
0780
0780
0700
0700
0F00
0E00
1E00
7C00
7800
ENDCHAR
STARTCHAR z
ENCODING 122
SWIDTH 602 0
DWIDTH 17 0
BBX 11 15 3 0
BITMAP
FFE0
FFE0
01E0
03C0
0380
0780
0F00
0E00
1E00
3C00
3800
7800
F000
FFE0
FFE0
ENDCHAR
STARTCHAR braceleft
ENCODING 123
SWIDTH 602 0
DWIDTH 17 0
BBX 11 26 3 -5
BITMAP
03E0
07E0
0F00
0E00
0E00
0E00
0E00
0E00
0E00
0E00
0E00
1C00
F800
F800
1C00
0E00
0E00
0E00
0E00
0E00
0E00
0E00
0E00
0F00
07E0
03E0
ENDCHAR
STARTCHAR bar
ENCODING 124
SWIDTH 602 0
DWIDTH 17 0
BBX 2 28 7 -7
BITMAP
C0
C0
C0
C0
C0
C0
C0
C0
C0
C0
C0
C0
C0
C0
C0
C0
C0
C0
C0
C0
C0
C0
C0
C0
C0
C0
C0
C0
ENDCHAR
STARTCHAR braceright
ENCODING 125
SWIDTH 602 0
DWIDTH 17 0
BBX 11 26 3 -5
BITMAP
F800
FC00
1E00
0E00
0E00
0E00
0E00
0E00
0E00
0E00
0E00
0700
03E0
03E0
0700
0E00
0E00
0E00
0E00
0E00
0E00
0E00
0E00
1E00
FC00
F800
ENDCHAR
STARTCHAR asciitilde
ENCODING 126
SWIDTH 602 0
DWIDTH 17 0
BBX 14 4 1 6
BITMAP
3C04
FF0C
C3FC
80F0
ENDCHAR
STARTCHAR nonbreakingspace
ENCODING 160
SWIDTH 602 0
DWIDTH 17 0
BBX 1 1 0 0
BITMAP
00
ENDCHAR
STARTCHAR exclamdown
ENCODING 161
SWIDTH 602 0
DWIDTH 17 0
BBX 3 20 7 0
BITMAP
E0
E0
E0
00
00
00
E0
E0
E0
E0
E0
E0
E0
E0
E0
E0
E0
E0
E0
E0
ENDCHAR
STARTCHAR cent
ENCODING 162
SWIDTH 602 0
DWIDTH 17 0
BBX 12 23 3 -4
BITMAP
0100
0100
0100
0100
07E0
1FF0
3910
7100
F100
E100
E100
E100
E100
E100
F100
7100
3910
1FF0
07E0
0100
0100
0100
0100
ENDCHAR
STARTCHAR sterling
ENCODING 163
SWIDTH 602 0
DWIDTH 17 0
BBX 13 20 2 0
BITMAP
03F0
07F8
0F08
1E00
1C00
1C00
1C00
1C00
1C00
1C00
FFE0
FFE0
1C00
1C00
1C00
1C00
1C00
1C00
FFF8
FFF8
ENDCHAR
STARTCHAR currency
ENCODING 164
SWIDTH 602 0
DWIDTH 17 0
BBX 11 11 3 3
BITMAP
C020
EEE0
7FC0
3180
60C0
60C0
60C0
3180
7FC0
6EE0
C060
ENDCHAR
STARTCHAR yen
ENCODING 165
SWIDTH 602 0
DWIDTH 17 0
BBX 17 20 0 0
BITMAP
F00780
700700
380E00
1C1C00
1C1C00
0E3800
077000
3F7E00
3FFE00
03E000
01C000
01C000
3FFE00
3FFE00
01C000
01C000
01C000
01C000
01C000
01C000
ENDCHAR
STARTCHAR brokenbar
ENCODING 166
SWIDTH 602 0
DWIDTH 17 0
BBX 2 24 7 -5
BITMAP
C0
C0
C0
C0
C0
C0
C0
C0
C0
C0
00
00
00
00
C0
C0
C0
C0
C0
C0
C0
C0
C0
C0
ENDCHAR
STARTCHAR section
ENCODING 167
SWIDTH 602 0
DWIDTH 17 0
BBX 11 23 3 -3
BITMAP
1F80
3FC0
7840
7000
7000
3800
1C00
3E00
7780
E3C0
E1E0
E0E0
F0E0
78E0
1DC0
0F00
0380
01C0
01C0
01C0
43C0
7F80
3F00
ENDCHAR
STARTCHAR dieresis
ENCODING 168
SWIDTH 602 0
DWIDTH 17 0
BBX 9 3 4 18
BITMAP
E380
E380
E380
ENDCHAR
STARTCHAR copyright
ENCODING 169
SWIDTH 602 0
DWIDTH 17 0
BBX 17 17 0 2
BITMAP
03E000
0C1800
300600
23E200
4E1100
4C0100
980080
980080
980080
980080
980080
4C0100
4E1100
23E200
100400
0C1800
03E000
ENDCHAR
STARTCHAR ordfeminine
ENCODING 170
SWIDTH 602 0
DWIDTH 17 0
BBX 10 14 3 6
BITMAP
3F00
7F80
41C0
00C0
3FC0
7FC0
E0C0
C0C0
E1C0
7FC0
3CC0
0000
FFC0
FFC0
ENDCHAR
STARTCHAR guillemotleft
ENCODING 171
SWIDTH 602 0
DWIDTH 17 0
BBX 12 13 2 1
BITMAP
0410
0C30
1C70
38E0
71C0
E380
C300
E380
71C0
38E0
1C70
0C30
0410
ENDCHAR
STARTCHAR logicalnot
ENCODING 172
SWIDTH 602 0
DWIDTH 17 0
BBX 14 7 1 5
BITMAP
FFFC
FFFC
000C
000C
000C
000C
000C
ENDCHAR
STARTCHAR sfthyphen
ENCODING 173
SWIDTH 602 0
DWIDTH 17 0
BBX 7 2 5 7
BITMAP
FE
FE
ENDCHAR
STARTCHAR registered
ENCODING 174
SWIDTH 602 0
DWIDTH 17 0
BBX 17 17 0 2
BITMAP
03E000
0C1800
300600
27F200
461900
461900
861880
87F080
86E080
867080
863080
461900
461900
260E00
100400
0C1800
03E000
ENDCHAR
STARTCHAR macron
ENCODING 175
SWIDTH 602 0
DWIDTH 17 0
BBX 8 2 4 19
BITMAP
FF
FF
ENDCHAR
STARTCHAR degree
ENCODING 176
SWIDTH 602 0
DWIDTH 17 0
BBX 9 9 4 11
BITMAP
3E00
7F00
E380
C180
C180
C180
E380
7F00
3E00
ENDCHAR
STARTCHAR plusminus
ENCODING 177
SWIDTH 602 0
DWIDTH 17 0
BBX 14 16 1 0
BITMAP
0300
0300
0300
0300
FFFC
FFFC
0300
0300
0300
0300
0000
0000
0000
0000
FFFC
FFFC
ENDCHAR
STARTCHAR twosuperior
ENCODING 178
SWIDTH 602 0
DWIDTH 17 0
BBX 8 11 4 9
BITMAP
7C
FE
87
03
03
06
1C
38
70
FF
FF
ENDCHAR
STARTCHAR threesuperior
ENCODING 179
SWIDTH 602 0
DWIDTH 17 0
BBX 8 11 4 9
BITMAP
7C
FF
83
03
3E
3E
07
03
87
FE
7C
ENDCHAR
STARTCHAR acute
ENCODING 180
SWIDTH 602 0
DWIDTH 17 0
BBX 7 5 7 17
BITMAP
0E
1C
38
70
E0
ENDCHAR
STARTCHAR mu
ENCODING 181
SWIDTH 602 0
DWIDTH 17 0
BBX 14 21 3 -6
BITMAP
E070
E070
E070
E070
E070
E070
E070
E070
E070
E070
E070
E0F0
F0F0
FFBC
EF3C
E000
E000
E000
E000
E000
E000
ENDCHAR
STARTCHAR paragraph
ENCODING 182
SWIDTH 602 0
DWIDTH 17 0
BBX 13 23 1 -3
BITMAP
0FF8
3FF8
7F18
FF18
FF18
FF18
FF18
FF18
FF18
7F18
3F18
0F18
0318
0318
0318
0318
0318
0318
0318
0318
0318
0318
0318
ENDCHAR
STARTCHAR periodcentered
ENCODING 183
SWIDTH 602 0
DWIDTH 17 0
BBX 3 4 7 8
BITMAP
E0
E0
E0
E0
ENDCHAR
STARTCHAR cedilla
ENCODING 184
SWIDTH 602 0
DWIDTH 17 0
BBX 6 5 5 -5
BITMAP
18
0C
0C
FC
F8
ENDCHAR
STARTCHAR onesuperior
ENCODING 185
SWIDTH 602 0
DWIDTH 17 0
BBX 8 11 5 9
BITMAP
38
F8
D8
18
18
18
18
18
18
FF
FF
ENDCHAR
STARTCHAR ordmasculine
ENCODING 186
SWIDTH 602 0
DWIDTH 17 0
BBX 10 14 3 6
BITMAP
1E00
7F80
6180
C0C0
C0C0
C0C0
C0C0
C0C0
6180
7F80
1E00
0000
FFC0
FFC0
ENDCHAR
STARTCHAR guillemotright
ENCODING 187
SWIDTH 602 0
DWIDTH 17 0
BBX 12 13 3 1
BITMAP
8200
C300
E380
71C0
38E0
1C70
0C30
1C70
38E0
71C0
E380
C300
8200
ENDCHAR
STARTCHAR onequarter
ENCODING 188
SWIDTH 602 0
DWIDTH 17 0
BBX 16 26 0 -4
BITMAP
1C00
7C00
6C00
0C00
0C00
0C00
0C00
0C00
0C00
7F80
7F86
0078
07C0
3C00
C000
001C
001C
002C
004C
00CC
008C
01FF
01FF
000C
000C
000C
ENDCHAR
STARTCHAR onehalf
ENCODING 189
SWIDTH 602 0
DWIDTH 17 0
BBX 15 26 0 -4
BITMAP
1C00
7C00
6C00
0C00
0C00
0C00
0C00
0C00
0C00
7F80
7F86
0078
07C0
3C00
C000
00F8
01FC
010E
0006
0006
000C
0038
0070
00E0
01FE
01FE
ENDCHAR
STARTCHAR threequarters
ENCODING 190
SWIDTH 602 0
DWIDTH 17 0
BBX 16 26 0 -4
BITMAP
3E00
7F80
4180
0180
1F00
1F00
0380
0180
4380
7F00
3E06
0078
07C0
3C00
C000
001C
001C
002C
004C
00CC
008C
01FF
01FF
000C
000C
000C
ENDCHAR
STARTCHAR questiondown
ENCODING 191
SWIDTH 602 0
DWIDTH 17 0
BBX 11 20 2 0
BITMAP
0700
0700
0700
0000
0000
0700
0700
0700
0700
0F00
1E00
3C00
7800
F000
F000
E000
E020
70E0
7FC0
1F00
ENDCHAR
STARTCHAR Agrave
ENCODING 192
SWIDTH 602 0
DWIDTH 17 0
BBX 16 26 1 0
BITMAP
0E00
0600
0300
0180
0000
0000
03C0
03C0
03C0
07E0
07E0
07E0
0E70
0E70
0E70
1C38
1C38
1C38
3FFC
3FFC
381C
781E
700E
700E
F00F
E007
ENDCHAR
STARTCHAR Aacute
ENCODING 193
SWIDTH 602 0
DWIDTH 17 0
BBX 16 26 1 0
BITMAP
00E0
00C0
0180
0300
0000
0000
03C0
03C0
03C0
07E0
07E0
07E0
0E70
0E70
0E70
1C38
1C38
1C38
3FFC
3FFC
381C
781E
700E
700E
F00F
E007
ENDCHAR
STARTCHAR Acircumflex
ENCODING 194
SWIDTH 602 0
DWIDTH 17 0
BBX 16 26 1 0
BITMAP
0780
0780
0CC0
1860
0000
0000
03C0
03C0
03C0
07E0
07E0
07E0
0E70
0E70
0E70
1C38
1C38
1C38
3FFC
3FFC
381C
781E
700E
700E
F00F
E007
ENDCHAR
STARTCHAR Atilde
ENCODING 195
SWIDTH 602 0
DWIDTH 17 0
BBX 16 26 1 0
BITMAP
0F30
1FF0
19E0
0000
0000
0000
03C0
03C0
03C0
07E0
07E0
07E0
0E70
0E70
0E70
1C38
1C38
1C38
3FFC
3FFC
381C
781E
700E
700E
F00F
E007
ENDCHAR
STARTCHAR Adieresis
ENCODING 196
SWIDTH 602 0
DWIDTH 17 0
BBX 16 26 1 0
BITMAP
1C70
1C70
1C70
0000
0000
0000
03C0
03C0
03C0
07E0
07E0
07E0
0E70
0E70
0E70
1C38
1C38
1C38
3FFC
3FFC
381C
781E
700E
700E
F00F
E007
ENDCHAR
STARTCHAR Aring
ENCODING 197
SWIDTH 602 0
DWIDTH 17 0
BBX 16 26 1 0
BITMAP
03C0
07E0
0E70
0C30
0C30
0E70
07E0
03C0
03C0
07E0
07E0
07E0
0E70
0E70
0E70
1C38
1C38
1C38
3C3C
3FFC
3FFC
781E
700E
700E
F00F
E007
ENDCHAR
STARTCHAR AE
ENCODING 198
SWIDTH 602 0
DWIDTH 17 0
BBX 16 20 0 0
BITMAP
03FF
07FF
0770
0770
0F70
0E70
0E70
0E70
1C7E
1C7E
1C70
3C70
3FF0
3FF0
3870
7070
7070
7070
F07F
E07F
ENDCHAR
STARTCHAR Ccedilla
ENCODING 199
SWIDTH 602 0
DWIDTH 17 0
BBX 13 25 2 -5
BITMAP
07F0
1FF8
3C18
3808
7000
7000
E000
E000
E000
E000
E000
E000
E000
E000
7000
7000
3808
3C18
1FF8
07F0
0180
00C0
00C0
0FC0
0F80
ENDCHAR
STARTCHAR Egrave
ENCODING 200
SWIDTH 602 0
DWIDTH 17 0
BBX 12 26 3 0
BITMAP
3800
1800
0C00
0600
0000
0000
FFF0
FFF0
E000
E000
E000
E000
E000
E000
FFE0
FFE0
E000
E000
E000
E000
E000
E000
E000
E000
FFF0
FFF0
ENDCHAR
STARTCHAR Eacute
ENCODING 201
SWIDTH 602 0
DWIDTH 17 0
BBX 12 26 3 0
BITMAP
0380
0300
0600
0C00
0000
0000
FFF0
FFF0
E000
E000
E000
E000
E000
E000
FFE0
FFE0
E000
E000
E000
E000
E000
E000
E000
E000
FFF0
FFF0
ENDCHAR
STARTCHAR Ecircumflex
ENCODING 202
SWIDTH 602 0
DWIDTH 17 0
BBX 12 26 3 0
BITMAP
1E00
1E00
3300
6180
0000
0000
FFF0
FFF0
E000
E000
E000
E000
E000
E000
FFE0
FFE0
E000
E000
E000
E000
E000
E000
E000
E000
FFF0
FFF0
ENDCHAR
STARTCHAR Edieresis
ENCODING 203
SWIDTH 602 0
DWIDTH 17 0
BBX 12 26 3 0
BITMAP
71C0
71C0
71C0
0000
0000
0000
FFF0
FFF0
E000
E000
E000
E000
E000
E000
FFE0
FFE0
E000
E000
E000
E000
E000
E000
E000
E000
FFF0
FFF0
ENDCHAR
STARTCHAR Igrave
ENCODING 204
SWIDTH 602 0
DWIDTH 17 0
BBX 11 26 3 0
BITMAP
3800
1800
0C00
0600
0000
0000
FFE0
FFE0
0E00
0E00
0E00
0E00
0E00
0E00
0E00
0E00
0E00
0E00
0E00
0E00
0E00
0E00
0E00
0E00
FFE0
FFE0
ENDCHAR
STARTCHAR Iacute
ENCODING 205
SWIDTH 602 0
DWIDTH 17 0
BBX 11 26 3 0
BITMAP
0380
0300
0600
0C00
0000
0000
FFE0
FFE0
0E00
0E00
0E00
0E00
0E00
0E00
0E00
0E00
0E00
0E00
0E00
0E00
0E00
0E00
0E00
0E00
FFE0
FFE0
ENDCHAR
STARTCHAR Icircumflex
ENCODING 206
SWIDTH 602 0
DWIDTH 17 0
BBX 11 26 3 0
BITMAP
1E00
1E00
3300
6180
0000
0000
FFE0
FFE0
0E00
0E00
0E00
0E00
0E00
0E00
0E00
0E00
0E00
0E00
0E00
0E00
0E00
0E00
0E00
0E00
FFE0
FFE0
ENDCHAR
STARTCHAR Idieresis
ENCODING 207
SWIDTH 602 0
DWIDTH 17 0
BBX 11 26 3 0
BITMAP
71C0
71C0
71C0
0000
0000
0000
FFE0
FFE0
0E00
0E00
0E00
0E00
0E00
0E00
0E00
0E00
0E00
0E00
0E00
0E00
0E00
0E00
0E00
0E00
FFE0
FFE0
ENDCHAR
STARTCHAR Eth
ENCODING 208
SWIDTH 602 0
DWIDTH 17 0
BBX 15 20 0 0
BITMAP
3FC0
3FF0
3878
381C
381C
380C
380E
380E
FF8E
FF8E
380E
380E
380E
380E
380C
381C
381C
3878
3FF0
3FC0
ENDCHAR
STARTCHAR Ntilde
ENCODING 209
SWIDTH 602 0
DWIDTH 17 0
BBX 13 26 2 0
BITMAP
1E60
3FE0
33C0
0000
0000
0000
F038
F038
F838
F838
F838
EC38
EC38
EE38
E638
E638
E338
E338
E3B8
E1B8
E1B8
E0F8
E0F8
E0F8
E078
E078
ENDCHAR
STARTCHAR Ograve
ENCODING 210
SWIDTH 602 0
DWIDTH 17 0
BBX 14 26 2 0
BITMAP
1C00
0C00
0600
0300
0000
0000
0FC0
1FE0
3870
7038
7038
E01C
E01C
E01C
E01C
E01C
E01C
E01C
E01C
E01C
E01C
7038
7038
3870
1FE0
0FC0
ENDCHAR
STARTCHAR Oacute
ENCODING 211
SWIDTH 602 0
DWIDTH 17 0
BBX 14 26 2 0
BITMAP
01C0
0180
0300
0600
0000
0000
0FC0
1FE0
3870
7038
7038
E01C
E01C
E01C
E01C
E01C
E01C
E01C
E01C
E01C
E01C
7038
7038
3870
1FE0
0FC0
ENDCHAR
STARTCHAR Ocircumflex
ENCODING 212
SWIDTH 602 0
DWIDTH 17 0
BBX 14 26 2 0
BITMAP
0F00
0F00
1980
30C0
0000
0000
0FC0
1FE0
3870
7038
7038
E01C
E01C
E01C
E01C
E01C
E01C
E01C
E01C
E01C
E01C
7038
7038
3870
1FE0
0FC0
ENDCHAR
STARTCHAR Otilde
ENCODING 213
SWIDTH 602 0
DWIDTH 17 0
BBX 14 26 2 0
BITMAP
1E60
3FE0
33C0
0000
0000
0000
0FC0
1FE0
3870
7038
7038
E01C
E01C
E01C
E01C
E01C
E01C
E01C
E01C
E01C
E01C
7038
7038
3870
1FE0
0FC0
ENDCHAR
STARTCHAR Odieresis
ENCODING 214
SWIDTH 602 0
DWIDTH 17 0
BBX 14 26 2 0
BITMAP
38E0
38E0
38E0
0000
0000
0000
0FC0
1FE0
3870
7038
7038
E01C
E01C
E01C
E01C
E01C
E01C
E01C
E01C
E01C
E01C
7038
7038
3870
1FE0
0FC0
ENDCHAR
STARTCHAR multiply
ENCODING 215
SWIDTH 602 0
DWIDTH 17 0
BBX 13 13 2 2
BITMAP
4010
E038
7070
38E0
1DC0
0F80
0700
0F80
1DC0
38E0
7070
E038
4010
ENDCHAR
STARTCHAR Oslash
ENCODING 216
SWIDTH 602 0
DWIDTH 17 0
BBX 16 20 1 0
BITMAP
07E3
0FF6
1C3E
381C
381C
703E
706E
706E
70CE
718E
738E
730E
760E
7C0E
7C0E
381C
381C
7C38
FFF0
C7E0
ENDCHAR
STARTCHAR Ugrave
ENCODING 217
SWIDTH 602 0
DWIDTH 17 0
BBX 13 26 2 0
BITMAP
1C00
0C00
0600
0300
0000
0000
E038
E038
E038
E038
E038
E038
E038
E038
E038
E038
E038
E038
E038
E038
E038
E038
E038
7070
3FE0
0FC0
ENDCHAR
STARTCHAR Uacute
ENCODING 218
SWIDTH 602 0
DWIDTH 17 0
BBX 13 26 2 0
BITMAP
01C0
0180
0300
0600
0000
0000
E038
E038
E038
E038
E038
E038
E038
E038
E038
E038
E038
E038
E038
E038
E038
E038
E038
7070
3FE0
0FC0
ENDCHAR
STARTCHAR Ucircumflex
ENCODING 219
SWIDTH 602 0
DWIDTH 17 0
BBX 13 26 2 0
BITMAP
0F00
0F00
1980
30C0
0000
0000
E038
E038
E038
E038
E038
E038
E038
E038
E038
E038
E038
E038
E038
E038
E038
E038
E038
7070
3FE0
0FC0
ENDCHAR
STARTCHAR Udieresis
ENCODING 220
SWIDTH 602 0
DWIDTH 17 0
BBX 13 26 2 0
BITMAP
38E0
38E0
38E0
0000
0000
0000
E038
E038
E038
E038
E038
E038
E038
E038
E038
E038
E038
E038
E038
E038
E038
E038
E038
7070
3FE0
0FC0
ENDCHAR
STARTCHAR Yacute
ENCODING 221
SWIDTH 602 0
DWIDTH 17 0
BBX 17 26 0 0
BITMAP
007000
006000
00C000
018000
000000
000000
F00780
780F00
380E00
3C1E00
1C1C00
1E3C00
0F7800
077000
07F000
03E000
01C000
01C000
01C000
01C000
01C000
01C000
01C000
01C000
01C000
01C000
ENDCHAR
STARTCHAR Thorn
ENCODING 222
SWIDTH 602 0
DWIDTH 17 0
BBX 13 20 3 0
BITMAP
E000
E000
E000
E000
FFC0
FFE0
E0F0
E078
E038
E038
E038
E038
E078
E0F0
FFE0
FFC0
E000
E000
E000
E000
ENDCHAR
STARTCHAR germandbls
ENCODING 223
SWIDTH 602 0
DWIDTH 17 0
BBX 13 21 3 0
BITMAP
1F00
7FC0
71C0
E0E0
E0E0
E1E0
E380
E700
E700
E700
E700
E380
E1C0
E0F0
E070
E038
E038
E038
E878
EFF0
E7C0
ENDCHAR
STARTCHAR agrave
ENCODING 224
SWIDTH 602 0
DWIDTH 17 0
BBX 13 22 2 0
BITMAP
3800
1C00
0E00
0700
0380
0000
0000
1FC0
7FF0
6070
0038
0038
1FF8
3FF8
7838
E038
E038
E078
E078
F0F8
7FB8
1F38
ENDCHAR
STARTCHAR aacute
ENCODING 225
SWIDTH 602 0
DWIDTH 17 0
BBX 13 22 2 0
BITMAP
0070
00E0
01C0
0380
0700
0000
0000
1FC0
7FF0
6070
0038
0038
1FF8
3FF8
7838
E038
E038
E078
E078
F0F8
7FB8
1F38
ENDCHAR
STARTCHAR acircumflex
ENCODING 226
SWIDTH 602 0
DWIDTH 17 0
BBX 13 22 2 0
BITMAP
0700
0F80
0D80
18C0
3060
0000
0000
1FC0
7FF0
6070
0038
0038
1FF8
3FF8
7838
E038
E038
E078
E078
F0F8
7FB8
1F38
ENDCHAR
STARTCHAR atilde
ENCODING 227
SWIDTH 602 0
DWIDTH 17 0
BBX 13 22 2 0
BITMAP
1C60
3E60
33E0
31C0
0000
0000
0000
1FC0
7FF0
6070
0038
0038
1FF8
3FF8
7838
E038
E038
E078
E078
F0F8
7FB8
1F38
ENDCHAR
STARTCHAR adieresis
ENCODING 228
SWIDTH 602 0
DWIDTH 17 0
BBX 13 21 2 0
BITMAP
38E0
38E0
38E0
0000
0000
0000
1FC0
7FF0
6070
0038
0038
1FF8
3FF8
7838
E038
E038
E078
E078
F0F8
7FB8
1F38
ENDCHAR
STARTCHAR aring
ENCODING 229
SWIDTH 602 0
DWIDTH 17 0
BBX 13 25 2 0
BITMAP
0780
0FC0
1CE0
1860
1860
1CE0
0FC0
0780
0000
0000
1FC0
7FF0
6070
0038
0038
1FF8
3FF8
7838
E038
E038
E078
E078
F0F8
7FB8
1F38
ENDCHAR
STARTCHAR ae
ENCODING 230
SWIDTH 602 0
DWIDTH 17 0
BBX 16 15 1 0
BITMAP
3E3C
7F7E
43EE
01C7
01C7
01C7
01C7
1FFF
7FFF
F1C0
E1C0
E1C0
F3E1
7F7F
3E3E
ENDCHAR
STARTCHAR ccedilla
ENCODING 231
SWIDTH 602 0
DWIDTH 17 0
BBX 12 20 3 -5
BITMAP
0FC0
1FE0
3830
7010
F000
E000
E000
E000
E000
E000
F000
7000
3C30
1FE0
0FC0
0300
0180
0180
1F80
1F00
ENDCHAR
STARTCHAR egrave
ENCODING 232
SWIDTH 602 0
DWIDTH 17 0
BBX 14 22 2 0
BITMAP
3800
1C00
0E00
0700
0380
0000
0000
0FC0
1FF0
3878
7038
F01C
E01C
E01C
FFFC
FFFC
E000
E000
7008
3838
1FF0
0FC0
ENDCHAR
STARTCHAR eacute
ENCODING 233
SWIDTH 602 0
DWIDTH 17 0
BBX 14 22 2 0
BITMAP
0070
00E0
01C0
0380
0700
0000
0000
0FC0
1FF0
3878
7038
F01C
E01C
E01C
FFFC
FFFC
E000
E000
7008
3838
1FF0
0FC0
ENDCHAR
STARTCHAR ecircumflex
ENCODING 234
SWIDTH 602 0
DWIDTH 17 0
BBX 14 22 2 0
BITMAP
0700
0F80
0D80
18C0
3060
0000
0000
0FC0
1FF0
3878
7038
F01C
E01C
E01C
FFFC
FFFC
E000
E000
7008
3838
1FF0
0FC0
ENDCHAR
STARTCHAR edieresis
ENCODING 235
SWIDTH 602 0
DWIDTH 17 0
BBX 14 21 2 0
BITMAP
38E0
38E0
38E0
0000
0000
0000
0FC0
1FF0
3878
7038
F01C
E01C
E01C
FFFC
FFFC
E000
E000
7008
3838
1FF0
0FC0
ENDCHAR
STARTCHAR igrave
ENCODING 236
SWIDTH 602 0
DWIDTH 17 0
BBX 13 22 2 0
BITMAP
3800
1C00
0E00
0700
0380
0000
0000
7F00
7F00
0700
0700
0700
0700
0700
0700
0700
0700
0700
0700
0700
FFF8
FFF8
ENDCHAR
STARTCHAR iacute
ENCODING 237
SWIDTH 602 0
DWIDTH 17 0
BBX 13 22 2 0
BITMAP
0070
00E0
01C0
0380
0700
0000
0000
7F00
7F00
0700
0700
0700
0700
0700
0700
0700
0700
0700
0700
0700
FFF8
FFF8
ENDCHAR
STARTCHAR icircumflex
ENCODING 238
SWIDTH 602 0
DWIDTH 17 0
BBX 13 22 2 0
BITMAP
0700
0F80
0D80
18C0
3060
0000
0000
7F00
7F00
0700
0700
0700
0700
0700
0700
0700
0700
0700
0700
0700
FFF8
FFF8
ENDCHAR
STARTCHAR idieresis
ENCODING 239
SWIDTH 602 0
DWIDTH 17 0
BBX 13 21 2 0
BITMAP
38E0
38E0
38E0
0000
0000
0000
7F00
7F00
0700
0700
0700
0700
0700
0700
0700
0700
0700
0700
0700
FFF8
FFF8
ENDCHAR
STARTCHAR eth
ENCODING 240
SWIDTH 602 0
DWIDTH 17 0
BBX 13 21 2 0
BITMAP
3C00
1EE0
1F80
3F00
2780
03C0
0FE0
3FE0
7870
7070
E038
E038
E038
E038
E038
E038
E038
7070
78F0
3FE0
0F80
ENDCHAR
STARTCHAR ntilde
ENCODING 241
SWIDTH 602 0
DWIDTH 17 0
BBX 12 22 3 0
BITMAP
38C0
7CC0
67C0
6380
0000
0000
0000
E7C0
EFE0
F8E0
F070
E070
E070
E070
E070
E070
E070
E070
E070
E070
E070
E070
ENDCHAR
STARTCHAR ograve
ENCODING 242
SWIDTH 602 0
DWIDTH 17 0
BBX 13 22 2 0
BITMAP
3800
1C00
0E00
0700
0380
0000
0000
0F80
3FE0
78F0
7070
E038
E038
E038
E038
E038
E038
E038
7070
78F0
3FE0
0F80
ENDCHAR
STARTCHAR oacute
ENCODING 243
SWIDTH 602 0
DWIDTH 17 0
BBX 13 22 2 0
BITMAP
0070
00E0
01C0
0380
0700
0000
0000
0F80
3FE0
78F0
7070
E038
E038
E038
E038
E038
E038
E038
7070
78F0
3FE0
0F80
ENDCHAR
STARTCHAR ocircumflex
ENCODING 244
SWIDTH 602 0
DWIDTH 17 0
BBX 13 22 2 0
BITMAP
0700
0F80
0D80
18C0
3060
0000
0000
0F80
3FE0
78F0
7070
E038
E038
E038
E038
E038
E038
E038
7070
78F0
3FE0
0F80
ENDCHAR
STARTCHAR otilde
ENCODING 245
SWIDTH 602 0
DWIDTH 17 0
BBX 13 22 2 0
BITMAP
1C60
3E60
33E0
31C0
0000
0000
0000
0F80
3FE0
78F0
7070
E038
E038
E038
E038
E038
E038
E038
7070
78F0
3FE0
0F80
ENDCHAR
STARTCHAR odieresis
ENCODING 246
SWIDTH 602 0
DWIDTH 17 0
BBX 13 21 2 0
BITMAP
38E0
38E0
38E0
0000
0000
0000
0F80
3FE0
78F0
7070
E038
E038
E038
E038
E038
E038
E038
7070
78F0
3FE0
0F80
ENDCHAR
STARTCHAR divide
ENCODING 247
SWIDTH 602 0
DWIDTH 17 0
BBX 15 12 1 3
BITMAP
0380
0380
0380
0000
0000
FFFE
FFFE
0000
0000
0380
0380
0380
ENDCHAR
STARTCHAR oslash
ENCODING 248
SWIDTH 602 0
DWIDTH 17 0
BBX 15 17 1 -1
BITMAP
0004
07CE
1FFC
3C78
3838
707C
70DC
719C
711C
731C
761C
7C1C
3838
3C78
7FF0
E7E0
8000
ENDCHAR
STARTCHAR ugrave
ENCODING 249
SWIDTH 602 0
DWIDTH 17 0
BBX 12 22 3 0
BITMAP
7000
3800
1C00
0E00
0700
0000
0000
E070
E070
E070
E070
E070
E070
E070
E070
E070
E070
E070
E0F0
71F0
7F70
3E70
ENDCHAR
STARTCHAR uacute
ENCODING 250
SWIDTH 602 0
DWIDTH 17 0
BBX 12 22 3 0
BITMAP
00E0
01C0
0380
0700
0E00
0000
0000
E070
E070
E070
E070
E070
E070
E070
E070
E070
E070
E070
E0F0
71F0
7F70
3E70
ENDCHAR
STARTCHAR ucircumflex
ENCODING 251
SWIDTH 602 0
DWIDTH 17 0
BBX 12 22 3 0
BITMAP
0E00
1F00
1B00
3180
60C0
0000
0000
E070
E070
E070
E070
E070
E070
E070
E070
E070
E070
E070
E0F0
71F0
7F70
3E70
ENDCHAR
STARTCHAR udieresis
ENCODING 252
SWIDTH 602 0
DWIDTH 17 0
BBX 12 21 3 0
BITMAP
71C0
71C0
71C0
0000
0000
0000
E070
E070
E070
E070
E070
E070
E070
E070
E070
E070
E070
E0F0
71F0
7F70
3E70
ENDCHAR
STARTCHAR yacute
ENCODING 253
SWIDTH 602 0
DWIDTH 17 0
BBX 14 28 1 -6
BITMAP
0038
0070
00E0
01C0
0380
0000
0000
E01C
7038
7038
7878
3870
3870
3CF0
1CE0
1CE0
0FC0
0FC0
0FC0
0780
0780
0700
0700
0F00
0E00
1E00
7C00
7800
ENDCHAR
STARTCHAR thorn
ENCODING 254
SWIDTH 602 0
DWIDTH 17 0
BBX 13 27 3 -6
BITMAP
E000
E000
E000
E000
E000
E000
E7C0
FFE0
F8F0
F070
E038
E038
E038
E038
E038
E038
E038
F070
F8F0
FFE0
E7C0
E000
E000
E000
E000
E000
E000
ENDCHAR
STARTCHAR ydieresis
ENCODING 255
SWIDTH 602 0
DWIDTH 17 0
BBX 14 27 1 -6
BITMAP
1C70
1C70
1C70
0000
0000
0000
E01C
7038
7038
7878
3870
3870
3CF0
1CE0
1CE0
0FC0
0FC0
0FC0
0780
0780
0700
0700
0F00
0E00
1E00
7C00
7800
ENDCHAR
STARTCHAR .notdef
ENCODING -1
SWIDTH 602 0
DWIDTH 17 0
BBX 14 25 1 -5
BITMAP
FFFC
FFFC
C00C
C00C
C00C
C00C
C00C
C00C
C00C
C00C
C00C
C00C
C00C
C00C
C00C
C00C
C00C
C00C
C00C
C00C
C00C
C00C
C00C
FFFC
FFFC
ENDCHAR
STARTCHAR .null
ENCODING -1
SWIDTH 0 0
DWIDTH 0 0
BBX 1 1 0 0
BITMAP
00
ENDCHAR
STARTCHAR nonmarkingreturn
ENCODING -1
SWIDTH 602 0
DWIDTH 17 0
BBX 1 1 0 0
BITMAP
00
ENDCHAR
STARTCHAR dagger
ENCODING -1
SWIDTH 602 0
DWIDTH 17 0
BBX 13 23 2 -3
BITMAP
0700
0700
0700
0700
0700
0700
FFF8
FFF8
0700
0700
0700
0700
0700
0700
0700
0700
0700
0700
0700
0700
0700
0700
0700
ENDCHAR
STARTCHAR bullet
ENCODING -1
SWIDTH 602 0
DWIDTH 17 0
BBX 8 8 4 6
BITMAP
3C
7E
FF
FF
FF
FF
7E
3C
ENDCHAR
STARTCHAR trademark
ENCODING -1
SWIDTH 602 0
DWIDTH 17 0
BBX 15 8 0 12
BITMAP
FDCE
31CE
31FE
31B6
31B6
3196
3186
3186
ENDCHAR
STARTCHAR notequal
ENCODING -1
SWIDTH 602 0
DWIDTH 17 0
BBX 14 15 1 1
BITMAP
0010
0018
0038
0070
FFFC
FFFC
0380
0300
0700
FFFC
FFFC
3800
7000
6000
2000
ENDCHAR
STARTCHAR infinity
ENCODING -1
SWIDTH 602 0
DWIDTH 17 0
BBX 16 10 1 4
BITMAP
3C3C
7E7E
E7E6
C3C3
C183
C183
C3C3
E7E7
7E7E
3C3C
ENDCHAR
STARTCHAR lessequal
ENCODING -1
SWIDTH 602 0
DWIDTH 17 0
BBX 14 15 1 0
BITMAP
000C
007C
03FC
1FC0
FE00
E000
FE00
1FC0
03FC
007C
000C
0000
0000
FFFC
FFFC
ENDCHAR
STARTCHAR greaterequal
ENCODING -1
SWIDTH 602 0
DWIDTH 17 0
BBX 14 15 1 0
BITMAP
C000
F800
FF00
0FE0
01FC
001C
01FC
0FE0
FF00
F800
C000
0000
0000
FFFC
FFFC
ENDCHAR
STARTCHAR partialdiff
ENCODING -1
SWIDTH 602 0
DWIDTH 17 0
BBX 12 18 3 0
BITMAP
0780
0FC0
1E60
0020
0030
0030
0030
1F30
38B0
7070
F070
E070
E060
E060
E0C0
60C0
7180
1E00
ENDCHAR
STARTCHAR summation
ENCODING -1
SWIDTH 602 0
DWIDTH 17 0
BBX 13 27 2 -6
BITMAP
FFF8
FFF8
6000
7000
3000
1800
1C00
0C00
0600
0600
0300
0180
0180
01C0
0180
0300
0300
0600
0E00
0C00
1800
1800
3000
7000
6000
FFF8
FFF8
ENDCHAR
STARTCHAR product
ENCODING -1
SWIDTH 602 0
DWIDTH 17 0
BBX 13 27 2 -6
BITMAP
FFF8
FFF8
C018
C018
C018
C018
C018
C018
C018
C018
C018
C018
C018
C018
C018
C018
C018
C018
C018
C018
C018
C018
C018
C018
C018
C018
C018
ENDCHAR
STARTCHAR pi
ENCODING -1
SWIDTH 602 0
DWIDTH 17 0
BBX 15 15 1 0
BITMAP
FFFE
FFFE
3018
3018
3018
3018
3018
3018
3018
3018
3018
3018
3018
301E
300E
ENDCHAR
STARTCHAR integral
ENCODING -1
SWIDTH 602 0
DWIDTH 17 0
BBX 13 26 2 -5
BITMAP
0070
01B8
01B8
0380
0300
0300
0300
0700
0700
0700
0700
0700
0700
0700
0700
0700
0700
0700
0700
0600
0600
0600
0E00
EC00
EC00
7800
ENDCHAR
STARTCHAR Omega
ENCODING -1
SWIDTH 602 0
DWIDTH 17 0
BBX 14 19 1 0
BITMAP
0FC0
1FE0
3870
7038
6018
C00C
C00C
C00C
C00C
C00C
C00C
C00C
C00C
6018
6018
7038
3030
F87C
F87C
ENDCHAR
STARTCHAR radical
ENCODING -1
SWIDTH 602 0
DWIDTH 17 0
BBX 15 24 1 -1
BITMAP
0006
0006
000C
000C
000C
0018
0018
0018
0030
0030
1030
F060
D060
1860
18C0
18C0
0CC0
0DC0
0D80
0780
0780
0700
0700
0300
ENDCHAR
STARTCHAR florin
ENCODING -1
SWIDTH 602 0
DWIDTH 17 0
BBX 16 27 0 -6
BITMAP
001E
003F
0079
0070
00F0
00E0
00E0
00E0
00E0
0FFC
0FFC
01C0
01C0
01C0
01C0
01C0
01C0
0380
0380
0380
0380
0380
0700
0700
8F00
FE00
7C00
ENDCHAR
STARTCHAR approxequal
ENCODING -1
SWIDTH 602 0
DWIDTH 17 0
BBX 14 9 1 4
BITMAP
3C04
FF0C
C3FC
00F0
0000
3C04
FF0C
C3FC
00F0
ENDCHAR
STARTCHAR Delta
ENCODING -1
SWIDTH 602 0
DWIDTH 17 0
BBX 17 19 0 0
BITMAP
01C000
03C000
03E000
03E000
07F000
077000
077000
0E7800
0E3800
1E3800
1C1C00
1C1C00
3C1E00
380E00
380E00
780F00
700700
7FFF00
FFFF80
ENDCHAR
STARTCHAR ellipsis
ENCODING -1
SWIDTH 602 0
DWIDTH 17 0
BBX 15 4 1 0
BITMAP
E38E
E38E
E38E
E38E
ENDCHAR
STARTCHAR OE
ENCODING -1
SWIDTH 602 0
DWIDTH 17 0
BBX 16 20 1 0
BITMAP
0FFF
3FFF
78E0
70E0
70E0
E0E0
E0E0
E0E0
E0FE
E0FE
E0E0
E0E0
E0E0
E0E0
E0E0
70E0
70E0
78E0
3FFF
0FFF
ENDCHAR
STARTCHAR oe
ENCODING -1
SWIDTH 602 0
DWIDTH 17 0
BBX 16 15 0 0
BITMAP
1E3C
7F7E
73EE
E1C7
E1C7
E1C7
E1C7
E1FF
E1FF
E1C0
E1C0
E1C0
73E1
7F7F
1E3E
ENDCHAR
STARTCHAR endash
ENCODING -1
SWIDTH 602 0
DWIDTH 17 0
BBX 17 2 0 7
BITMAP
FFFF80
FFFF80
ENDCHAR
STARTCHAR emdash
ENCODING -1
SWIDTH 602 0
DWIDTH 17 0
BBX 17 2 0 7
BITMAP
FFFF80
FFFF80
ENDCHAR
STARTCHAR quotedblleft
ENCODING -1
SWIDTH 602 0
DWIDTH 17 0
BBX 10 8 4 13
BITMAP
30C0
71C0
71C0
6180
E380
E380
E380
E380
ENDCHAR
STARTCHAR quotedblright
ENCODING -1
SWIDTH 602 0
DWIDTH 17 0
BBX 10 8 4 13
BITMAP
71C0
71C0
71C0
71C0
6180
E380
E380
C300
ENDCHAR
STARTCHAR quoteleft
ENCODING -1
SWIDTH 602 0
DWIDTH 17 0
BBX 4 8 6 13
BITMAP
30
70
70
60
E0
E0
E0
E0
ENDCHAR
STARTCHAR quoteright
ENCODING -1
SWIDTH 602 0
DWIDTH 17 0
BBX 4 8 7 13
BITMAP
70
70
70
70
60
E0
E0
C0
ENDCHAR
STARTCHAR lozenge
ENCODING -1
SWIDTH 602 0
DWIDTH 17 0
BBX 14 27 2 -6
BITMAP
0300
0300
0780
0480
0CC0
0840
1860
1020
3030
2010
6018
4008
C00C
C00C
400C
6018
6018
3030
3030
1860
1860
0CC0
0CC0
0780
0780
0300
0300
ENDCHAR
STARTCHAR Ydieresis
ENCODING -1
SWIDTH 602 0
DWIDTH 17 0
BBX 17 26 0 0
BITMAP
0E3800
0E3800
0E3800
000000
000000
000000
F00780
780F00
380E00
3C1E00
1C1C00
1E3C00
0F7800
077000
07F000
03E000
01C000
01C000
01C000
01C000
01C000
01C000
01C000
01C000
01C000
01C000
ENDCHAR
STARTCHAR fraction
ENCODING -1
SWIDTH 602 0
DWIDTH 17 0
BBX 14 23 1 -3
BITMAP
001C
0038
0038
0070
0070
00E0
00E0
01C0
01C0
0380
0380
0780
0700
0700
0E00
0E00
1C00
1C00
3800
3800
7000
7000
E000
ENDCHAR
STARTCHAR guilsinglleft
ENCODING -1
SWIDTH 602 0
DWIDTH 17 0
BBX 6 13 5 1
BITMAP
04
0C
1C
38
70
E0
C0
E0
70
38
1C
0C
04
ENDCHAR
STARTCHAR guilsinglright
ENCODING -1
SWIDTH 602 0
DWIDTH 17 0
BBX 6 13 6 1
BITMAP
80
C0
E0
70
38
1C
0C
1C
38
70
E0
C0
80
ENDCHAR
STARTCHAR fi
ENCODING -1
SWIDTH 602 0
DWIDTH 17 0
BBX 15 21 0 0
BITMAP
07EE
0FEE
1E0E
1C00
1C00
1C00
FFFE
FFFE
1C0E
1C0E
1C0E
1C0E
1C0E
1C0E
1C0E
1C0E
1C0E
1C0E
1C0E
1C0E
1C0E
ENDCHAR
STARTCHAR fl
ENCODING -1
SWIDTH 602 0
DWIDTH 17 0
BBX 15 21 0 0
BITMAP
07FE
0FFE
1E0E
1C0E
1C0E
1C0E
FFCE
FFCE
1C0E
1C0E
1C0E
1C0E
1C0E
1C0E
1C0E
1C0E
1C0E
1C0E
1C0E
1C0E
1C0E
ENDCHAR
STARTCHAR daggerdbl
ENCODING -1
SWIDTH 602 0
DWIDTH 17 0
BBX 13 23 2 -3
BITMAP
0700
0700
0700
0700
0700
0700
FFF8
FFF8
0700
0700
0700
0700
0700
0700
0700
FFF8
FFF8
0700
0700
0700
0700
0700
0700
ENDCHAR
STARTCHAR quotesinglbase
ENCODING -1
SWIDTH 602 0
DWIDTH 17 0
BBX 4 8 6 -4
BITMAP
70
70
70
70
60
E0
E0
C0
ENDCHAR
STARTCHAR quotedblbase
ENCODING -1
SWIDTH 602 0
DWIDTH 17 0
BBX 10 8 4 -4
BITMAP
71C0
71C0
71C0
71C0
6180
E380
E380
C300
ENDCHAR
STARTCHAR perthousand
ENCODING -1
SWIDTH 602 0
DWIDTH 17 0
BBX 17 20 0 0
BITMAP
3C0000
7E0000
E70000
C30000
C30000
E70600
7E1C00
3CF000
038000
0E0000
780000
600000
1E1E00
3F3F00
73F380
61E180
61E180
73F380
3F3F00
1E1E00
ENDCHAR
STARTCHAR dotlessi
ENCODING -1
SWIDTH 602 0
DWIDTH 17 0
BBX 13 15 2 0
BITMAP
7F00
7F00
0700
0700
0700
0700
0700
0700
0700
0700
0700
0700
0700
FFF8
FFF8
ENDCHAR
STARTCHAR circumflex
ENCODING -1
SWIDTH 602 0
DWIDTH 17 0
BBX 9 5 4 17
BITMAP
1C00
3E00
3600
6300
C180
ENDCHAR
STARTCHAR tilde
ENCODING -1
SWIDTH 602 0
DWIDTH 17 0
BBX 9 4 4 18
BITMAP
7180
F980
CF80
C700
ENDCHAR
STARTCHAR breve
ENCODING -1
SWIDTH 602 0
DWIDTH 17 0
BBX 9 4 4 18
BITMAP
C180
E380
7F00
3E00
ENDCHAR
STARTCHAR dotaccent
ENCODING -1
SWIDTH 602 0
DWIDTH 17 0
BBX 3 3 7 18
BITMAP
E0
E0
E0
ENDCHAR
STARTCHAR ring
ENCODING -1
SWIDTH 602 0
DWIDTH 17 0
BBX 8 8 5 17
BITMAP
3C
7E
E7
C3
C3
E7
7E
3C
ENDCHAR
STARTCHAR hungarumlaut
ENCODING -1
SWIDTH 602 0
DWIDTH 17 0
BBX 9 5 5 17
BITMAP
3980
3300
6600
6600
CC00
ENDCHAR
STARTCHAR ogonek
ENCODING -1
SWIDTH 602 0
DWIDTH 17 0
BBX 5 5 6 -5
BITMAP
60
C0
C0
F8
78
ENDCHAR
STARTCHAR caron
ENCODING -1
SWIDTH 602 0
DWIDTH 17 0
BBX 9 5 4 17
BITMAP
C180
6300
3600
3E00
1C00
ENDCHAR
STARTCHAR Lslash
ENCODING -1
SWIDTH 602 0
DWIDTH 17 0
BBX 16 20 0 0
BITMAP
1C00
1C00
1C00
1C00
1C00
1C00
1C60
1DE0
1F80
1F00
1C00
7C00
FC00
5C00
1C00
1C00
1C00
1C00
1FFF
1FFF
ENDCHAR
STARTCHAR lslash
ENCODING -1
SWIDTH 602 0
DWIDTH 17 0
BBX 13 21 1 0
BITMAP
7F00
7F00
0700
0700
0700
0710
0738
07E0
07C0
0780
0F00
3F00
7700
C700
0700
0700
0700
0700
0380
03F8
00F8
ENDCHAR
STARTCHAR Scaron
ENCODING -1
SWIDTH 602 0
DWIDTH 17 0
BBX 13 26 2 0
BITMAP
30C0
1980
0F00
0F00
0000
0000
0FC0
3FF0
7870
F010
E000
E000
E000
F800
7F00
3FE0
0FF0
00F0
0078
0038
0038
0038
8078
E0F0
FFE0
3FC0
ENDCHAR
STARTCHAR scaron
ENCODING -1
SWIDTH 602 0
DWIDTH 17 0
BBX 11 22 3 0
BITMAP
60C0
3180
1B00
1F00
0E00
0000
0000
1F80
7FC0
F040
E000
E000
FC00
7F80
3FC0
07E0
01E0
00E0
00E0
C1E0
FFC0
3F00
ENDCHAR
STARTCHAR Zcaron
ENCODING -1
SWIDTH 602 0
DWIDTH 17 0
BBX 14 26 2 0
BITMAP
30C0
1980
0F00
0F00
0000
0000
FFFC
FFFC
003C
0078
0070
00F0
01E0
01C0
03C0
0380
0700
0F00
0E00
1E00
3C00
3800
7800
F000
FFFC
FFFC
ENDCHAR
STARTCHAR zcaron
ENCODING -1
SWIDTH 602 0
DWIDTH 17 0
BBX 11 22 3 0
BITMAP
60C0
3180
1B00
1F00
0E00
0000
0000
FFE0
FFE0
01E0
03C0
0380
0780
0F00
0E00
1E00
3C00
3800
7800
F000
FFE0
FFE0
ENDCHAR
STARTCHAR minus
ENCODING -1
SWIDTH 602 0
DWIDTH 17 0
BBX 14 2 1 8
BITMAP
FFFC
FFFC
ENDCHAR
STARTCHAR Gbreve
ENCODING -1
SWIDTH 602 0
DWIDTH 17 0
BBX 14 27 2 0
BITMAP
3060
38E0
1FC0
0F80
0000
0000
0000
07F0
1FF8
3C18
3808
7000
7000
E000
E000
E000
E0FC
E0FC
E01C
E01C
E01C
701C
701C
381C
3C3C
1FFC
07F0
ENDCHAR
STARTCHAR gbreve
ENCODING -1
SWIDTH 602 0
DWIDTH 17 0
BBX 13 28 2 -6
BITMAP
3060
38E0
1FC0
0F80
0000
0000
0000
1F38
3FB8
78F8
7078
E038
E038
E038
E038
E038
E038
E038
7078
78F8
3FB8
1F38
0038
0038
0070
20F0
3FE0
1F80
ENDCHAR
STARTCHAR Idotaccent
ENCODING -1
SWIDTH 602 0
DWIDTH 17 0
BBX 11 26 3 0
BITMAP
0E00
0E00
0E00
0000
0000
0000
FFE0
FFE0
0E00
0E00
0E00
0E00
0E00
0E00
0E00
0E00
0E00
0E00
0E00
0E00
0E00
0E00
0E00
0E00
FFE0
FFE0
ENDCHAR
STARTCHAR Scedilla
ENCODING -1
SWIDTH 602 0
DWIDTH 17 0
BBX 13 25 2 -5
BITMAP
0FC0
3FF0
7870
F010
E000
E000
E000
F800
7F00
3FE0
0FF0
00F0
0078
0038
0038
0038
8078
E0F0
FFE0
3FC0
0300
0180
0180
1F80
1F00
ENDCHAR
STARTCHAR scedilla
ENCODING -1
SWIDTH 602 0
DWIDTH 17 0
BBX 11 20 3 -5
BITMAP
1F80
7FC0
F040
E000
E000
FC00
7F80
3FC0
07E0
01E0
00E0
00E0
C1E0
FFC0
3F00
0600
0300
0300
3F00
3E00
ENDCHAR
STARTCHAR Cacute
ENCODING -1
SWIDTH 602 0
DWIDTH 17 0
BBX 13 26 2 0
BITMAP
00E0
00C0
0180
0300
0000
0000
07F0
1FF8
3C18
3808
7000
7000
E000
E000
E000
E000
E000
E000
E000
E000
7000
7000
3808
3C18
1FF8
07F0
ENDCHAR
STARTCHAR cacute
ENCODING -1
SWIDTH 602 0
DWIDTH 17 0
BBX 12 22 3 0
BITMAP
0070
00E0
01C0
0380
0700
0000
0000
0FC0
1FE0
3830
7010
F000
E000
E000
E000
E000
E000
F000
7000
3C30
1FE0
0FC0
ENDCHAR
STARTCHAR Ccaron
ENCODING -1
SWIDTH 602 0
DWIDTH 17 0
BBX 13 26 2 0
BITMAP
1860
0CC0
0780
0780
0000
0000
07F0
1FF8
3C18
3808
7000
7000
E000
E000
E000
E000
E000
E000
E000
E000
7000
7000
3808
3C18
1FF8
07F0
ENDCHAR
STARTCHAR ccaron
ENCODING -1
SWIDTH 602 0
DWIDTH 17 0
BBX 12 22 3 0
BITMAP
3060
18C0
0D80
0F80
0700
0000
0000
0FC0
1FE0
3830
7010
F000
E000
E000
E000
E000
E000
F000
7000
3C30
1FE0
0FC0
ENDCHAR
STARTCHAR dcroat
ENCODING -1
SWIDTH 602 0
DWIDTH 17 0
BBX 16 21 2 0
BITMAP
0038
0038
0038
03FF
03FF
0038
1F38
3FF8
78F8
7078
E038
E038
E038
E038
E038
E038
E038
7078
78F8
3FF8
1F38
ENDCHAR
STARTCHAR periodcentered
ENCODING -1
SWIDTH 602 0
DWIDTH 17 0
BBX 3 4 7 8
BITMAP
E0
E0
E0
E0
ENDCHAR
STARTCHAR Euro
ENCODING -1
SWIDTH 602 0
DWIDTH 17 0
BBX 14 20 1 0
BITMAP
01F8
07FC
0F0C
1C04
1C00
3800
FFF0
FFE0
3800
3800
3800
FFC0
FFC0
3800
3800
1C00
1C04
0F0C
07FC
01F8
ENDCHAR
STARTCHAR c6459
ENCODING -1
SWIDTH 602 0
DWIDTH 17 0
BBX 9 3 4 18
BITMAP
E380
E380
E380
ENDCHAR
STARTCHAR c6460
ENCODING -1
SWIDTH 602 0
DWIDTH 17 0
BBX 5 4 7 17
BITMAP
38
30
60
C0
ENDCHAR
STARTCHAR c6461
ENCODING -1
SWIDTH 602 0
DWIDTH 17 0
BBX 9 3 4 18
BITMAP
7980
FF80
CF00
ENDCHAR
STARTCHAR c6468
ENCODING -1
SWIDTH 602 0
DWIDTH 17 0
BBX 5 4 5 17
BITMAP
E0
60
30
18
ENDCHAR
STARTCHAR c6470
ENCODING -1
SWIDTH 602 0
DWIDTH 17 0
BBX 8 4 4 17
BITMAP
3C
3C
66
C3
ENDCHAR
STARTCHAR c6472
ENCODING -1
SWIDTH 602 0
DWIDTH 17 0
BBX 8 4 4 17
BITMAP
C3
66
3C
3C
ENDCHAR
STARTCHAR c6477
ENCODING -1
SWIDTH 602 0
DWIDTH 17 0
BBX 15 5 0 7
BITMAP
0006
0078
07C0
3C00
C000
ENDCHAR
STARTCHAR c6478
ENCODING -1
SWIDTH 602 0
DWIDTH 17 0
BBX 9 11 4 9
BITMAP
0E00
0E00
1600
2600
6600
4600
FF80
FF80
0600
0600
0600
ENDCHAR
STARTCHAR c6475
ENCODING -1
SWIDTH 602 0
DWIDTH 17 0
BBX 9 4 4 18
BITMAP
C180
E380
7F00
3E00
ENDCHAR
STARTCHAR c6476
ENCODING -1
SWIDTH 602 0
DWIDTH 17 0
BBX 3 3 7 18
BITMAP
E0
E0
E0
ENDCHAR
ENDFONT
